<svg xmlns="http://www.w3.org/2000/svg" xmlns:xlink="http://www.w3.org/1999/xlink" width="960" zoomAndPan="magnify" viewBox="0 0 720 719.999996" height="960" preserveAspectRatio="xMidYMid meet" version="1.0"><path fill="#064e3b" d="M 420.675781 455.773438 C 414.523438 450.675781 406.351562 448.800781 398.773438 450.824219 C 391.800781 452.625 386.25 457.574219 383.699219 464.398438 C 380.398438 473.023438 382.800781 483.449219 389.625 489.675781 C 393.898438 493.648438 399.675781 495.75 405.523438 495.75 C 408.898438 495.75 412.273438 495.074219 415.351562 493.574219 C 423.675781 489.601562 429.074219 480.375 428.476562 471.148438 C 427.949219 465.074219 425.175781 459.449219 420.675781 455.773438 Z M 410.398438 483.375 C 406.199219 485.398438 400.648438 484.574219 397.199219 481.351562 C 393.75 478.199219 392.476562 472.726562 394.199219 468.375 C 395.476562 465 398.175781 462.601562 401.625 461.699219 C 402.675781 461.398438 403.800781 461.25 404.851562 461.25 C 407.925781 461.25 411 462.375 413.476562 464.398438 C 415.574219 466.125 416.925781 468.898438 417.148438 471.824219 C 417.449219 476.550781 414.601562 481.351562 410.398438 483.375 Z M 584.175781 449.925781 C 576 444.675781 566.101562 444.824219 558.375 450.300781 C 551.625 455.023438 547.726562 463.273438 548.175781 471.675781 C 548.550781 478.425781 551.625 484.875 556.726562 489.226562 C 561.074219 493.050781 566.925781 495.148438 572.625 495.148438 C 573.601562 495.148438 574.574219 495.074219 575.550781 495 C 585.449219 493.726562 594 485.625 595.800781 475.800781 C 597.601562 465.976562 592.949219 455.550781 584.175781 449.925781 Z M 584.699219 473.773438 C 583.800781 478.875 579.226562 483.226562 574.050781 483.824219 C 570.523438 484.273438 566.773438 483.148438 564 480.75 C 561.300781 478.351562 559.5 474.75 559.351562 471.074219 C 559.125 466.574219 561.226562 462 564.824219 459.449219 C 570.601562 455.398438 576 458.023438 578.101562 459.300781 C 582.226562 462.074219 585.898438 467.550781 584.699219 473.773438 Z M 690.824219 406.199219 C 690.824219 406.050781 690.75 405.898438 690.75 405.824219 C 687.300781 390.675781 681.601562 378.601562 673.726562 369.75 C 656.699219 350.625 642.449219 338.699219 593.773438 337.875 C 594.074219 321.300781 592.875 304.875 590.398438 291.074219 C 588.226562 279.226562 584.25 264.074219 572.625 251.550781 C 542.175781 218.851562 451.199219 213.75 407.476562 242.25 C 398.773438 247.949219 392.476562 253.574219 387.601562 260.101562 C 378.601562 272.101562 372.75 287.324219 371.175781 303 C 369.976562 315.375 369.75 327.898438 370.648438 341.25 C 341.699219 344.101562 320.324219 355.273438 303.523438 376.425781 C 298.5 372 291.976562 369.300781 285.300781 369.226562 C 285.226562 369.226562 285.148438 369.226562 285.074219 369.226562 C 275.25 369.226562 265.800781 374.773438 260.925781 383.324219 C 256.875 390.449219 256.425781 398.699219 256.5 406.574219 C 256.5 407.324219 256.5 408 256.5 408.675781 C 256.574219 414.601562 256.648438 419.773438 254.925781 424.800781 C 253.199219 429.75 248.625 433.800781 244.425781 433.949219 C 239.398438 434.175781 236.398438 430.050781 235.125 427.574219 C 232.949219 423.375 231.75 418.050781 231.449219 411.300781 C 230.550781 387.824219 230.550781 378.449219 230.550781 363 C 230.550781 354.449219 230.550781 343.800781 230.324219 327.824219 C 230.324219 326.25 230.324219 324.449219 230.324219 322.574219 C 230.476562 313.5 230.625 302.25 226.125 294.226562 C 221.851562 286.574219 215.476562 282.300781 206.773438 281.324219 L 207 264.300781 C 207.300781 246.226562 206.625 228.898438 196.050781 215.476562 C 181.648438 197.25 156.601562 195.449219 131.550781 196.273438 C 104.625 197.101562 77.699219 200.699219 63.300781 220.875 C 52.875 235.5 52.648438 254.925781 52.574219 269.101562 L 51 470.773438 C 46.800781 472.199219 42.75 474.148438 38.925781 476.851562 C 24.449219 487.125 25.050781 502.273438 25.574219 516.898438 C 25.726562 519.898438 28.125 522.300781 31.125 522.300781 C 36.375 522.300781 41.699219 522.375 47.101562 522.375 C 73.5 522.375 101.324219 522 128.324219 521.625 C 160.800781 521.175781 194.476562 520.726562 225.300781 520.949219 C 226.800781 520.949219 228.226562 520.351562 229.273438 519.300781 C 230.324219 518.25 230.925781 516.824219 230.925781 515.324219 L 230.925781 511.574219 C 230.925781 490.648438 230.925781 479.101562 215.324219 470.851562 C 211.648438 468.898438 207.824219 467.773438 203.925781 467.023438 L 206.476562 292.726562 C 211.648438 293.550781 214.199219 296.175781 216.148438 299.773438 C 219.148438 305.175781 219 314.773438 218.925781 322.5 C 218.925781 324.449219 218.851562 326.25 218.925781 327.976562 C 219.074219 343.875 219.074219 354.523438 219.148438 363 C 219.148438 378.601562 219.148438 388.050781 220.050781 411.75 C 220.351562 420.226562 222 427.050781 225 432.824219 C 229.125 440.625 236.175781 445.273438 243.898438 445.273438 C 244.199219 445.273438 244.425781 445.273438 244.726562 445.273438 C 254.699219 444.898438 262.726562 436.5 265.425781 428.550781 C 267.75 421.648438 267.675781 415.050781 267.601562 408.601562 C 267.601562 407.925781 267.601562 407.25 267.601562 406.5 C 267.523438 400.648438 267.75 393.976562 270.601562 388.875 C 273.449219 383.851562 279.148438 380.476562 284.925781 380.476562 C 285 380.476562 285 380.476562 285.074219 380.476562 C 289.425781 380.550781 293.699219 382.5 296.773438 385.648438 C 296.324219 386.324219 295.949219 386.925781 295.5 387.601562 C 283.5 406.574219 279.375 430.351562 282.75 460.125 C 282.75 460.351562 282.75 460.574219 282.824219 460.726562 C 283.125 463.199219 283.425781 465.675781 283.800781 468.226562 C 284.925781 475.351562 291.074219 480.675781 298.273438 480.675781 C 298.425781 480.675781 298.5 480.675781 298.648438 480.675781 C 315.523438 480.226562 333.148438 479.851562 352.199219 479.550781 C 353.398438 486.601562 356.023438 493.351562 360.226562 499.351562 C 369.824219 513.148438 386.851562 521.699219 404.175781 521.699219 C 405.074219 521.699219 405.976562 521.699219 406.875 521.625 C 424.425781 520.726562 440.773438 511.199219 449.625 496.726562 C 453.074219 491.101562 455.25 484.726562 456.148438 478.273438 C 467.851562 478.199219 479.476562 478.050781 491.175781 477.976562 C 500.25 477.898438 509.324219 477.824219 518.324219 477.75 C 520.351562 492 528.074219 505.574219 540.148438 514.125 C 549.375 520.648438 560.699219 523.875 572.101562 523.875 C 583.800781 523.875 595.574219 520.425781 605.25 513.675781 C 617.324219 505.199219 624.898438 491.25 626.398438 476.398438 C 642.523438 476.101562 665.773438 475.574219 679.050781 475.273438 C 686.699219 475.125 692.925781 469.199219 693.601562 461.550781 C 695.023438 443.773438 694.425781 426.601562 691.726562 411.898438 C 691.574219 409.875 691.199219 408.074219 690.824219 406.199219 Z M 63.976562 269.25 C 64.125 252.824219 64.875 238.273438 72.601562 227.476562 C 84.75 210.449219 109.648438 208.273438 132.074219 207.601562 C 154.125 206.925781 176.101562 208.199219 187.351562 222.523438 C 195.601562 233.023438 196.125 248.25 195.898438 264.226562 L 192.976562 465.976562 C 190.199219 465.898438 187.574219 465.976562 185.101562 466.050781 C 168.226562 466.425781 150.976562 466.351562 134.324219 466.351562 C 117.601562 466.351562 100.351562 466.351562 83.324219 466.648438 C 76.875 466.800781 69.675781 466.949219 62.398438 468.074219 Z M 210.300781 480.75 C 219.300781 485.476562 219.898438 490.050781 219.898438 509.550781 C 190.5 509.398438 158.925781 509.851562 128.324219 510.300781 C 97.726562 510.75 66.074219 511.199219 36.75 511.050781 C 36.523438 499.125 37.574219 491.625 45.523438 486 C 55.351562 479.023438 68.550781 478.199219 83.476562 477.898438 C 100.351562 477.523438 117.601562 477.601562 134.25 477.601562 C 150.976562 477.601562 168.226562 477.601562 185.25 477.300781 C 189.300781 477.226562 193.574219 477.148438 197.773438 477.523438 C 202.273438 477.898438 206.550781 478.800781 210.300781 480.75 Z M 656.476562 382.574219 C 657.300781 379.574219 659.625 376.800781 662.925781 374.699219 C 663.675781 375.523438 664.425781 376.351562 665.175781 377.175781 C 670.648438 383.324219 674.925781 391.726562 678 401.851562 C 671.324219 401.625 665.476562 399.75 661.574219 396.375 C 657.300781 392.851562 655.199219 387.148438 656.476562 382.574219 Z M 494.25 235.199219 C 525.300781 236.925781 552.148438 246.148438 564.300781 259.199219 C 571.949219 267.449219 576.375 277.574219 579.300781 293.101562 C 581.699219 306.226562 582.824219 321.976562 582.523438 337.875 C 555.226562 338.25 520.273438 338.699219 486.375 339.148438 C 486.226562 339.148438 486 339.148438 485.851562 339.148438 C 485.699219 325.648438 485.550781 312.074219 485.476562 298.875 C 485.324219 277.949219 485.101562 256.273438 484.648438 234.898438 C 487.800781 234.898438 490.949219 235.050781 494.25 235.199219 Z M 382.425781 304.050781 C 383.773438 290.398438 388.800781 277.199219 396.601562 266.851562 C 400.648438 261.449219 406.125 256.648438 413.699219 251.699219 C 428.101562 242.25 449.550781 236.476562 473.398438 235.199219 C 473.851562 256.5 474 278.101562 474.226562 298.949219 C 474.375 312.148438 474.449219 325.800781 474.601562 339.300781 C 442.273438 339.675781 409.875 340.125 384.976562 340.5 C 383.925781 340.5 382.949219 340.5 381.976562 340.574219 C 381.074219 327.824219 381.226562 315.824219 382.425781 304.050781 Z M 293.550781 453.75 C 292.125 437.175781 293.398438 422.851562 297.300781 410.476562 C 298.273438 411.074219 299.101562 411.75 299.773438 412.574219 C 302.324219 415.800781 302.550781 420.824219 302.550781 426.601562 C 302.550781 431.175781 302.550781 435.75 302.625 440.25 C 302.625 443.398438 302.625 446.625 301.5 448.875 C 300.300781 451.273438 297.300781 453.148438 293.625 453.75 C 293.625 453.75 293.550781 453.75 293.550781 453.75 Z M 440.175781 490.726562 C 433.273438 502.050781 420.375 509.550781 406.425781 510.226562 C 391.949219 510.976562 377.476562 504.074219 369.601562 492.75 C 361.5 481.125 360.75 464.851562 367.726562 453.226562 C 373.875 442.875 387.601562 436.351562 403.574219 436.273438 C 403.726562 436.273438 403.949219 436.273438 404.101562 436.273438 C 420.226562 436.273438 434.101562 442.648438 440.476562 453 C 447.375 463.949219 447.226562 479.175781 440.175781 490.726562 Z M 598.949219 504.375 C 583.648438 515.175781 561.675781 515.398438 546.824219 504.824219 C 531.824219 494.175781 525.148438 472.800781 531.824219 456.074219 C 539.324219 437.175781 559.726562 431.476562 574.875 432.300781 C 589.800781 433.199219 609.074219 441.074219 614.25 460.425781 C 615.148438 463.800781 615.601562 467.25 615.601562 470.699219 C 615.601562 470.773438 615.601562 470.851562 615.601562 470.851562 C 615.601562 470.925781 615.601562 470.925781 615.601562 471 C 615.601562 484.199219 609.523438 496.949219 598.949219 504.375 Z M 682.574219 460.574219 C 682.425781 462.449219 680.851562 463.949219 678.976562 463.949219 C 665.773438 464.25 642.601562 464.773438 626.476562 465.074219 C 626.175781 462.523438 625.726562 460.050781 625.050781 457.574219 C 619.5 436.875 600.074219 422.550781 575.476562 421.125 C 550.574219 419.699219 529.273438 431.773438 521.25 451.949219 C 519.449219 456.601562 518.324219 461.476562 518.023438 466.351562 C 509.101562 466.425781 500.101562 466.5 491.175781 466.574219 C 479.625 466.648438 468.074219 466.800781 456.523438 466.875 C 455.925781 459.824219 453.75 452.925781 450.074219 447 C 441.523438 433.199219 423.75 424.800781 403.425781 424.949219 C 383.550781 425.101562 366.148438 433.726562 357.976562 447.449219 C 354.226562 453.75 352.199219 460.875 351.75 468.148438 C 332.773438 468.449219 315.300781 468.824219 298.5 469.273438 C 298.5 469.273438 298.425781 469.273438 298.425781 469.273438 C 296.773438 469.273438 295.351562 468.074219 295.050781 466.351562 C 294.976562 465.824219 294.898438 465.375 294.824219 464.851562 C 295.050781 464.851562 295.351562 464.773438 295.574219 464.699219 C 302.699219 463.425781 308.625 459.375 311.476562 453.824219 C 313.875 449.175781 313.875 444.148438 313.875 440.023438 C 313.875 435.449219 313.875 430.949219 313.800781 426.375 C 313.800781 420.601562 313.726562 411.898438 308.550781 405.375 C 306.675781 403.050781 304.273438 401.175781 301.5 399.75 C 302.625 397.574219 303.75 395.398438 305.101562 393.300781 C 323.398438 364.273438 347.25 351.824219 384.976562 351.523438 C 412.949219 351.074219 450.300781 350.625 486.375 350.175781 C 522.523438 349.726562 559.949219 349.273438 587.925781 348.824219 C 625.574219 348.824219 641.175781 354.300781 654.824219 366.375 C 650.25 369.75 647.023438 374.25 645.601562 379.273438 C 643.125 388.050781 646.574219 398.324219 654.300781 404.773438 C 662.023438 411.300781 671.625 412.800781 678.375 412.875 C 678.675781 412.875 678.898438 412.875 679.199219 412.875 C 679.726562 412.875 680.175781 412.875 680.699219 412.875 C 683.324219 426.898438 684 442.949219 682.574219 460.574219 Z M 518.175781 371.773438 C 518.324219 374.851562 515.925781 377.550781 512.851562 377.699219 L 498.523438 378.375 C 498.449219 378.375 498.300781 378.375 498.226562 378.375 C 495.226562 378.375 492.75 376.050781 492.601562 373.050781 C 492.449219 369.976562 494.851562 367.273438 497.925781 367.125 L 512.25 366.449219 C 515.398438 366.300781 518.023438 368.699219 518.175781 371.773438 Z M 428.324219 373.050781 C 428.550781 376.125 426.226562 378.824219 423.074219 379.050781 L 406.425781 380.175781 C 406.273438 380.175781 406.199219 380.175781 406.050781 380.175781 C 403.125 380.175781 400.648438 377.925781 400.425781 374.925781 C 400.199219 371.851562 402.523438 369.148438 405.675781 368.925781 L 422.324219 367.800781 C 425.398438 367.574219 428.101562 369.976562 428.324219 373.050781 Z M 102.675781 426.976562 C 110.625 433.125 120.523438 436.199219 130.199219 436.199219 C 140.101562 436.199219 149.851562 432.976562 157.125 426.523438 C 170.851562 414.375 173.699219 395.25 174.75 376.425781 C 176.550781 343.726562 176.25 310.5 174 277.800781 C 173.023438 264.226562 171.375 250.050781 163.050781 238.726562 C 156 229.199219 144.824219 223.125 133.050781 222.300781 C 121.273438 221.550781 109.351562 226.125 101.175781 234.601562 C 87.976562 248.25 86.476562 268.199219 86.023438 287.398438 C 85.726562 298.949219 85.351562 309.300781 84.976562 320.324219 C 84.449219 334.726562 83.925781 349.648438 83.550781 368.699219 C 83.023438 391.273438 84.226562 412.726562 102.675781 426.976562 Z M 94.726562 368.925781 C 95.101562 349.949219 95.625 335.101562 96.148438 320.773438 C 96.523438 309.75 96.898438 299.398438 97.199219 287.699219 C 97.574219 270 98.851562 253.199219 109.199219 242.398438 C 115.125 236.25 123.75 232.949219 132.300781 233.476562 C 140.851562 234 148.949219 238.5 154.050781 245.324219 C 160.648438 254.25 162 266.550781 162.824219 278.476562 C 165.074219 310.726562 165.375 343.425781 163.574219 375.675781 C 162.675781 392.101562 160.351562 408.523438 149.773438 417.976562 C 139.5 427.125 121.5 427.125 109.648438 417.976562 C 95.175781 406.949219 94.351562 389.25 94.726562 368.925781 Z M 114.976562 341.773438 C 116.175781 341.773438 117.300781 341.699219 118.5 341.699219 C 117.300781 344.773438 116.023438 348 114.75 351.375 C 113.25 355.273438 111.75 359.324219 110.101562 363.523438 C 108.675781 367.199219 109.949219 371.25 113.324219 373.351562 C 114.675781 374.175781 116.175781 374.625 117.601562 374.625 C 119.773438 374.625 121.949219 373.726562 123.523438 372 C 136.425781 357.898438 145.425781 347.398438 159.523438 330.601562 C 161.550781 328.125 162 324.824219 160.648438 321.976562 C 159.300781 319.125 156.523438 317.398438 153.375 317.398438 C 153.375 317.398438 153.300781 317.398438 153.300781 317.398438 C 151.199219 317.398438 149.398438 317.476562 147.75 317.476562 C 145.199219 317.550781 143.023438 317.550781 140.550781 317.550781 C 141.226562 313.726562 142.351562 307.273438 144.375 296.398438 C 145.050781 292.574219 143.101562 288.898438 139.5 287.476562 C 135.898438 286.050781 131.925781 287.25 129.75 290.476562 C 122.851562 300.824219 110.175781 319.574219 103.273438 329.25 C 101.476562 331.726562 101.25 334.949219 102.675781 337.648438 C 104.101562 340.351562 106.875 342 109.875 342 C 111.675781 341.851562 113.324219 341.773438 114.976562 341.773438 Z M 130.425781 309.449219 C 127.800781 324 128.101562 324.449219 129.675781 326.398438 C 130.648438 327.675781 132.226562 328.425781 133.800781 328.574219 C 139.199219 328.875 142.425781 328.875 146.324219 328.726562 C 139.050781 337.351562 133.050781 344.324219 126.75 351.449219 C 128.625 346.574219 130.351562 342.074219 132 338.398438 C 132.75 336.675781 132.601562 334.726562 131.625 333.148438 C 130.648438 331.574219 128.925781 330.601562 127.050781 330.523438 C 124.949219 330.449219 123.148438 330.449219 121.5 330.449219 C 119.476562 330.449219 117.675781 330.523438 116.023438 330.523438 C 120.226562 324.449219 125.398438 316.875 130.425781 309.449219 Z M 481.574219 459.300781 C 478.5 459.300781 476.023438 456.898438 475.949219 453.824219 C 475.125 417.074219 474.300781 404.699219 474.449219 365.773438 C 474.449219 362.699219 477 360.148438 480.074219 360.148438 C 483.148438 360.148438 485.699219 362.699219 485.699219 365.773438 C 485.550781 404.625 486.375 416.851562 487.199219 453.523438 C 487.273438 456.601562 484.800781 459.226562 481.726562 459.300781 C 481.648438 459.300781 481.574219 459.300781 481.574219 459.300781 Z M 481.574219 459.300781 " fill-opacity="1" fill-rule="nonzero"/></svg>